<?xml version="1.0" encoding="UTF-8"?>
<svg id="Layer_1" xmlns="http://www.w3.org/2000/svg" version="1.1" viewBox="0 0 1130 220">
  <!-- Generator: Adobe Illustrator 30.0.0, SVG Export Plug-In . SVG Version: 2.1.1 Build 123)  -->
  <defs>
    <style>
      .st0 {
        fill: #fbb584;
      }

      .st1 {
        fill: #f89b6c;
      }

      .st2 {
        fill: #ec6608;
      }

      .st3 {
        fill: #f49c56;
      }

      .st4 {
        fill: #f37321;
      }
    </style>
  </defs>
  <rect class="st2" x="279.7" width="849.87" height="220"/>
  <g>
    <g>
      <path d="M60.28,142.66h-18.35v-2.93h18.35v2.93ZM51.11,155.55c-2.32,0-4.21-.59-5.66-1.76s-2.18-2.58-2.18-4.21.73-3.01,2.18-4.18,3.34-1.76,5.66-1.76,4.21.59,5.66,1.76,2.18,2.56,2.18,4.18-.73,3.04-2.18,4.21c-1.46,1.17-3.34,1.76-5.66,1.76ZM52.51,162.3h15.86v3.14h-16.85c-3.64,0-5.46-1.69-5.46-5.08v-3.27h4.09v2.8c0,1.61.78,2.42,2.35,2.42h.01ZM46.4,135.7h9.41v2.97h-9.41v-2.97ZM51.11,152.68c1.07,0,1.98-.3,2.75-.89.76-.59,1.14-1.33,1.14-2.22s-.38-1.59-1.14-2.18-1.68-.89-2.75-.89-1.98.3-2.75.89c-.76.59-1.14,1.32-1.14,2.18s.38,1.63,1.14,2.22,1.68.89,2.75.89ZM68.23,143.71h4.23v3.21h-4.23v10.33h-4.06v-21.04h4.06v7.5h0Z"/>
      <path d="M83.1,155.38c-1.46-.25-2.69-.8-3.72-1.64-1.41-1.16-2.11-2.55-2.11-4.16s.73-3.01,2.18-4.18,3.34-1.76,5.66-1.76,4.21.59,5.66,1.76c1.46,1.17,2.18,2.56,2.18,4.18s-.71,3-2.12,4.16c-1,.82-2.22,1.36-3.65,1.64v3.1h4.54c4.09,0,6.14-1.58,6.14-4.74v-17.53h4.06v9.82h4.23v3.24h-4.23v16.23h-4.06v-5.49c-1.23,1.09-3.05,1.64-5.46,1.64h-17.19v-3.17h7.88v-3.1h.01ZM94.22,142.66h-18.35v-2.93h18.35v2.93ZM80.4,135.7h9.41v2.97h-9.41s0-2.97,0-2.97ZM85.11,152.68c1.07,0,1.98-.3,2.75-.89.76-.59,1.14-1.33,1.14-2.22s-.38-1.59-1.14-2.18-1.68-.89-2.75-.89-1.98.3-2.75.89c-.76.59-1.14,1.32-1.14,2.18s.38,1.63,1.14,2.22,1.68.89,2.75.89Z"/>
      <path d="M138.83,157.36h-12.89v8.15h-4.16v-8.15h-12.86v-3.24h29.91v3.24ZM116.28,145.35v1.26c0,1.09.62,1.64,1.88,1.64h17.46v3.1h-17.97c-3.62,0-5.42-1.49-5.42-4.47v-10.33h23.19v3.1h-19.13v2.63h19.13v3.07h-19.14Z"/>
      <path d="M150.46,141.16v-1.3h-6.96v-3.17h17.91v3.17h-6.92v1.3c0,4.8.84,8.39,2.52,10.78,1.36,1.93,3.05,3.38,5.05,4.33v3.21c-3-.93-5.6-2.65-7.81-5.15-.68-.77-1.27-1.66-1.77-2.66-.5,1-1.09,1.89-1.77,2.66-2.21,2.5-4.81,4.22-7.81,5.15v-3.21c2-.96,3.68-2.4,5.05-4.33,1.68-2.39,2.52-5.98,2.52-10.78h-.01ZM173.55,149.24h-4.37v16.27h-4.06v-29.3h4.06v9.75h4.37v3.27h0Z"/>
      <path d="M176.31,149.96h29.91v3.24h-29.91v-3.24ZM203.49,139.62h-9.93c.5,1.43,1.71,2.76,3.62,3.99,1.75,1.11,4,1.67,6.75,1.67v3.04c-3.34.09-6.38-.56-9.11-1.94-1.48-.75-2.66-1.67-3.55-2.76-.91,1.09-2.1,2.01-3.58,2.76-2.73,1.39-5.76,2.04-9.11,1.94v-3.04c2.75,0,5-.56,6.75-1.67,1.91-1.23,3.12-2.56,3.62-3.99h-9.89v-3.07h24.42v3.07h.01ZM202.91,160.39c0,1.91-1.02,3.32-3.07,4.23-2.05.91-4.89,1.36-8.53,1.36s-6.48-.45-8.53-1.36-3.07-2.32-3.07-4.23,1.02-3.32,3.07-4.23c2.05-.91,4.89-1.36,8.53-1.36s6.48.46,8.53,1.36c2.05.91,3.07,2.32,3.07,4.23ZM191.28,162.88c2.27,0,4.08-.19,5.41-.56,1.33-.38,2-1.01,2-1.89s-.67-1.56-2-1.94c-1.33-.39-3.13-.58-5.41-.58s-4.01.19-5.35.58c-1.34.39-2.01,1.04-2.01,1.94s.67,1.52,2.01,1.89c1.34.38,3.13.56,5.35.56Z"/>
      <path d="M223.99,136.55c3.43,0,5.15,1.55,5.15,4.64v6h2.39v3.1h-10.3v5.66h-4.06v-5.66h-7.03v-3.1h14.97v-5.39c0-1.48-.84-2.22-2.52-2.22h-10.74v-3.04h12.14ZM220.99,162.3h16.85v3.14h-17.97c-3.64,0-5.46-1.81-5.46-5.42v-2.83h4.06v2.56c0,1.71.84,2.56,2.52,2.56h0ZM237.77,136.21v22.34h-4.06v-3.03h-7.78v-3h7.78v-16.3h4.06Z"/>
    </g>
    <path class="st0" d="M129.7,85.89c-1.05-9.52,8.93-17.16,22.29-17.06,13.36.11,25.04,7.91,26.09,17.42,1.04,9.53-8.93,17.16-22.29,17.05-13.36-.09-25.04-7.9-26.09-17.41M180.56,88.84c-1.21-11.81-14.65-21.48-30.02-21.61-15.38-.12-26.86,9.35-25.66,21.15,1.21,11.81,14.65,21.48,30.02,21.61,15.38.12,26.87-9.34,25.65-21.15"/>
    <path class="st1" d="M157.35,110.23c-7.57,7.92-19.73,8.57-27.15,1.47s-7.29-19.27.28-27.18c7.57-7.91,19.73-8.57,27.15-1.47,7.42,7.11,7.29,19.28-.28,27.18M129.29,84.26c-8.8,9.19-8.95,23.34-.32,31.6,8.62,8.25,22.76,7.49,31.55-1.71,8.81-9.19,8.95-23.35.33-31.6s-22.75-7.49-31.56,1.71"/>
    <path class="st4" d="M130.09,54.64c15.75-5.9,31.33.07,34.79,13.34,3.46,13.27-6.5,28.82-22.25,34.71-15.75,5.91-31.33-.07-34.79-13.33-3.47-13.26,6.5-28.81,22.25-34.72M115.46,59.72c-16.34,12.94-20.5,31.69-9.29,41.87,11.21,10.19,33.54,7.95,49.89-4.98,16.34-12.93,20.5-31.68,9.29-41.87-11.22-10.19-33.55-7.96-49.89,4.98"/>
  </g>
  <g>
    <path class="st3" d="M1003.96,116.89c.23,1.99.57,3.95,1.02,5.9-8.52,14.99-11.46,31.59-8.81,47.29-28.29-7.08-50.09-24.6-57.5-49.86-13.27-45.34,24.92-98.46,85.28-118.62h0c1.69-.57,3.39-1.1,5.08-1.6h-28.42c-11.33,5.29-22.34,11.61-32.71,18.93-62.66,44.2-78.58,108.27-35.63,143.1,17.17,13.91,41.16,21.03,67.76,21.77,4.02,10,10.53,19.26,19.6,26.99,4.17,3.56,8.69,6.63,13.45,9.21h85.82c3.83-1.92,7.54-4.1,11.1-6.55v-45.7c-2.49.11-5.02.16-7.58.15-11.12-.08-21.93-1.39-32.1-3.74,11.51-5.33,22.68-11.72,33.2-19.15,2.22-1.57,4.38-3.17,6.48-4.78v-9.83c-12.73,12.85-28.99,23.85-47.79,31.62-32.59-9.64-56.86-30.1-59.77-53.66h0c-.06-.52-.12-1.04-.16-1.56,1.02-1.06,2.06-2.11,3.16-3.14,29.03-27.04,75.63-29.25,104.05-4.99.18.15.34.31.51.46v-10.45c-32.59-18.68-77.79-13.92-107.78,12.93,1.65-29.32,38.07-51.87,85.68-51.53,7.54.05,14.95.68,22.1,1.81v-4.63c-8.93-1.65-18.22-2.57-27.7-2.64-58.93-.44-102.97,31.93-98.34,72.28ZM1119.07,190.73c3.56.03,7.06-.07,10.5-.28-.38.37-.75.75-1.14,1.12-29.04,27.02-75.61,29.26-104.06,5-4.57-3.9-8.39-8.25-11.47-12.91,13.94-.66,28.38-2.97,42.78-6.88,18.42,8.63,40.34,13.78,63.38,13.95ZM1046.46,172c-13.71,2.07-27.03,2.09-39.4.25-5.03-13.31-4.93-28.06.25-41.9,6.32,16.41,20.4,30.95,39.15,41.65Z"/>
    <path class="st3" d="M1108.83,0c7.73,2.69,14.85,6.23,21.17,10.55V0h-21.17Z"/>
  </g>
</svg>
