<?xml version="1.0" encoding="utf-8"?>
<!-- Generator: Adobe Illustrator 28.1.0, SVG Export Plug-In . SVG Version: 6.00 Build 0)  -->
<svg version="1.1" id="Layer_1" xmlns="http://www.w3.org/2000/svg" xmlns:xlink="http://www.w3.org/1999/xlink" x="0px" y="0px"
	 viewBox="396 951.82 1133.76 226.77" style="enable-background:new 0 0 1927.56 2128.82;" xml:space="preserve">
<style type="text/css">
	.st0{fill-rule:evenodd;clip-rule:evenodd;fill:#FFFFFF;}
	.st1{fill:#F9BA87;}
	.st2{fill:#F49B56;}
	.st3{fill:#ED6B06;}
	
		.st4{clip-path:url(#SVGID_00000021824868744023201650000002021082026501673406_);fill-rule:evenodd;clip-rule:evenodd;fill:#EC6608;}
	.st5{clip-path:url(#SVGID_00000141430772371158983930000016846752906953512069_);fill:#F49C56;}
</style>
<g>
	<rect x="396" y="951.82" class="st0" width="1133.76" height="226.77"/>
	<path class="st1" d="M574.73,1045.55c-1.2-11.91-14.75-21.66-30.27-21.79c-15.49-0.12-27.1,9.43-25.87,21.33
		c1.22,11.9,14.78,21.68,30.27,21.8C564.37,1067.02,575.96,1057.45,574.73,1045.55 M523.44,1042.55c-1.03-9.59,9.02-17.3,22.5-17.19
		c13.47,0.1,25.25,7.98,26.31,17.56c1.06,9.62-9.02,17.32-22.49,17.22C536.28,1060.04,524.5,1052.17,523.44,1042.55"/>
	<path class="st2" d="M523.02,1040.93c-8.86,9.26-9.01,23.53-0.33,31.87c8.7,8.31,22.96,7.56,31.85-1.73
		c8.87-9.28,9.02-23.53,0.31-31.87C546.17,1030.89,531.91,1031.65,523.02,1040.93 M551.33,1067.12c-7.64,7.97-19.9,8.63-27.38,1.46
		c-7.49-7.14-7.36-19.44,0.28-27.4c7.64-7.98,19.9-8.65,27.39-1.48C559.1,1046.88,558.98,1059.14,551.33,1067.12"/>
	<path class="st3" d="M509.11,1016.17c-16.5,13.05-20.68,31.97-9.39,42.23c11.3,10.26,33.84,8.03,50.31-5.02
		c16.49-13.05,20.68-31.95,9.38-42.23C548.11,1000.88,525.57,1003.13,509.11,1016.17 M523.84,1011.06
		c15.9-5.95,31.59,0.07,35.09,13.45c3.48,13.38-6.55,29.06-22.45,35.01c-15.87,5.96-31.6-0.07-35.07-13.45
		C497.91,1032.69,507.97,1017.02,523.84,1011.06"/>
	<path d="M500.33,1103.52h-4.37v-10.2h-4.29c0,0.27,0,18.16,0,18.16c-0.03,1.96-0.91,3.23-1.78,3.83l0-0.02
		c-1.54,1.06-4.77,1.04-4.77,1.04h0h-4.9v-4.97h-4.28v4.97h-7.73v3.22c0.21,0,11.51,0,17.06,0c0.15,0,4.7-0.02,6.29-1.71
		c0.06-0.07,0.1-0.13,0.12-0.18v5.89h4.28v-16.73h4.37"/>
	<rect x="472.93" y="1091.93" width="9.82" height="2.79"/>
	<rect x="468.39" y="1095.7" width="19.12" height="2.7"/>
	<path d="M477.88,1109.21c-2.26-0.01-4.09-1.68-4.08-3.72c0.02-2.05,1.86-3.48,4.12-3.48c2.27,0.01,4.09,1.46,4.09,3.51
		C482,1107.56,480.15,1109.22,477.88,1109.21 M477.92,1099.34c-4.84,0-8.17,2.81-8.17,6.27c0,3.03,3.31,6.27,8.17,6.27
		c4.95,0,8.16-3.33,8.16-6.27C486.08,1102.15,482.91,1099.34,477.92,1099.34"/>
	<path d="M464.43,1103.67c0.01-0.24,0-3.02,0-3.26h-4.38v-7.08h-4.28v20.89h4.28v-10.54"/>
	<path d="M459.97,1120.3h-16.08c-0.92,0-1.56-0.32-2.05-0.88c-0.62-0.69-0.7-1.6-0.69-2.7v-3.13h-4.31v4.81
		c-0.01,1.29,0.31,5.13,5.77,5.15h17.37"/>
	<rect x="437.12" y="1091.93" width="9.78" height="2.78"/>
	<path d="M442.08,1109.16c-2.26-0.01-4.07-1.67-4.07-3.71c0.01-2.04,1.84-3.47,4.1-3.46c2.26,0.01,4.07,1.45,4.06,3.49
		C446.17,1107.52,444.34,1109.16,442.08,1109.16 M442.11,1099.33c-4.82,0-8.13,2.8-8.13,6.25c0,3.02,3.3,6.25,8.13,6.25
		c4.92,0,8.14-3.31,8.14-6.25C450.24,1102.13,447.08,1099.33,442.11,1099.33"/>
	<rect x="432.61" y="1095.68" width="19.03" height="2.68"/>
	<polyline points="521.64,1114.48 521.64,1123.54 517.34,1123.54 517.34,1114.48 504.07,1114.48 504.07,1111.24 535.02,1111.24 
		535.02,1114.48 	"/>
	<path d="M513.89,1105.85h17.42v2.87h-17.73c-5.46,0-5.81-4.35-5.8-4.88v-10.24h23.53v2.83H512.1v3.07c0,0,0.01,0.03,0.01,0.05h19.2
		v2.83h-19.28v1.63C512.13,1105.53,513.32,1105.8,513.89,1105.85"/>
	<path d="M588.72,1121.82c-2.76-0.01-7.1-0.45-7.09-3.32c0.02-2.71,4.36-3.24,7.12-3.22c2.75,0.01,7.09,0.58,7.08,3.29
		C595.83,1121.37,591.48,1121.83,588.72,1121.82 M588.77,1112.57c-5.53,0-11.56,1.02-11.56,5.92c0,4.88,5.96,6.01,11.51,6.01
		c5.68,0,11.56-0.84,11.56-5.91C600.28,1113.75,594.44,1112.57,588.77,1112.57"/>
	<path d="M601.51,1093.59h-25.54v3.22h9.74c0,0.54-0.24,1.09-0.45,1.46c-1.72,2.98-6.63,5.06-9.29,5.23v3.02
		c7.23-0.75,11.62-3.99,12.77-5.6c1.15,1.61,5.54,4.85,12.77,5.6v-3.02c-2.67-0.17-7.58-2.25-9.3-5.23
		c-0.22-0.37-0.45-0.84-0.45-1.46h9.74"/>
	<polyline points="590.82,1107.97 586.55,1107.97 573.24,1107.97 573.24,1111.19 604.23,1111.19 604.23,1107.97 	"/>
	<path d="M620.58,1093.6c0,0-11.1,0.01-11.37,0v3.25h10.09c0.92,0.01,1.56,0.31,2.05,0.86c0.62,0.7,0.69,1.6,0.69,2.69v5.29
		c0.24,0,4.04,0.02,4.3,0.02v-6.97C626.33,1097.44,626.02,1093.63,620.58,1093.6"/>
	<polyline points="631.29,1115.68 635.59,1115.68 635.59,1093.35 631.29,1093.35 631.29,1109.89 624.66,1109.89 624.66,1112.57 
		631.29,1112.57 	"/>
	<polyline points="607.97,1105.55 628.02,1105.55 628.02,1108.58 619.29,1108.58 619.29,1113.1 615.16,1113.1 615.16,1108.58 
		607.97,1108.58 	"/>
	<path d="M635.59,1120.31h-16.1c-0.92,0-1.57-0.32-2.05-0.88c-0.62-0.69-0.7-1.6-0.7-2.7v-2.17h-4.29v3.85
		c-0.01,1.3,0.31,5.14,5.77,5.16h17.36"/>
	<path d="M569.51,1103.53h-4.37v-10.21h-4.26c0,0.26,0.01,29.97,0.01,30.23h4.26c0-0.71-0.01-16.72-0.01-16.72h4.37"/>
	<path d="M550.27,1097.51v-0.62H557v-3.3h-17.72v3.3h6.78c0,0.33,0,0.56,0,0.62c0.04,13.51-7.17,14.73-7.3,14.76v3.91
		c5.15-1.34,8.57-6.05,9.39-8.08c0.81,2.04,4.24,6.75,9.38,8.08v-3.95C557.53,1112.23,550.22,1111.16,550.27,1097.51"/>
	<g>
		<defs>
			<rect id="SVGID_1_" x="396" y="951.82" width="1133.76" height="226.77"/>
		</defs>
		<clipPath id="SVGID_00000029027923149278135780000007118168102331618451_">
			<use xlink:href="#SVGID_1_"  style="overflow:visible;"/>
		</clipPath>
		
			<path style="clip-path:url(#SVGID_00000029027923149278135780000007118168102331618451_);fill-rule:evenodd;clip-rule:evenodd;fill:#EC6608;" d="
			M676.63,951.82h853.23v226.77H676.63V951.82z M396,951.82"/>
	</g>
	<g>
		<defs>
			<rect id="SVGID_00000030479175388039288800000015441107876364309902_" x="1267.57" y="951.82" width="262.19" height="226.77"/>
		</defs>
		<clipPath id="SVGID_00000176721717591547292300000011286124648783308181_">
			<use xlink:href="#SVGID_00000030479175388039288800000015441107876364309902_"  style="overflow:visible;"/>
		</clipPath>
		<path style="clip-path:url(#SVGID_00000176721717591547292300000011286124648783308181_);fill:#F49C56;" d="M1618.44,1073.91
			c-4.68-41.58-56.99-75.66-116.78-76.11c-59.79-0.45-104.47,32.91-99.77,74.5c4.68,41.59,56.98,75.68,116.78,76.11
			C1578.47,1148.86,1623.13,1115.5,1618.44,1073.91 M1420.64,1063.5c-4.08-33.54,34.75-60.44,86.7-60.07
			c51.94,0.37,97.37,27.83,101.45,61.36c4.08,33.53-34.73,60.44-86.72,60.08C1470.16,1124.51,1424.71,1097.05,1420.64,1063.5"/>
		<path style="clip-path:url(#SVGID_00000176721717591547292300000011286124648783308181_);fill:#F49C56;" d="M1419.06,1057.76
			c-34.23,32.42-34.81,82.25-1.28,111.33c33.56,29.09,88.51,26.38,122.74-6.01c34.23-32.37,34.78-82.22,1.24-111.32
			C1508.26,1022.68,1453.3,1025.37,1419.06,1057.76 M1528.17,1149.28c-29.46,27.85-76.71,30.16-105.57,5.15
			c-28.88-25.02-28.38-67.91,1.09-95.78c29.45-27.87,76.73-30.15,105.56-5.14C1558.12,1078.51,1557.64,1121.41,1528.17,1149.28"/>
		<path style="clip-path:url(#SVGID_00000176721717591547292300000011286124648783308181_);fill:#F49C56;" d="M1365.3,971.33
			c-63.57,45.56-79.72,111.6-36.15,147.5c43.59,35.87,130.46,28.03,194.03-17.55c63.53-45.59,79.7-111.63,36.13-147.5
			C1515.69,917.88,1428.84,925.74,1365.3,971.33 M1422.17,953.47c61.26-20.82,121.84,0.24,135.3,46.98
			c13.46,46.73-25.27,101.48-86.52,122.28c-61.24,20.8-121.8-0.25-135.3-46.99C1322.19,1029,1360.93,974.25,1422.17,953.47"/>
	</g>
</g>
</svg>
