<?xml version="1.0" encoding="utf-8"?>
<!-- Generator: Adobe Illustrator 28.1.0, SVG Export Plug-In . SVG Version: 6.00 Build 0)  -->
<svg version="1.1" id="Layer_1" xmlns="http://www.w3.org/2000/svg" xmlns:xlink="http://www.w3.org/1999/xlink"  
	 viewBox="0 0 1130 220" xml:space="preserve" x="0px" y="0px">
<style type="text/css">
	.st0{fill-rule:evenodd;clip-rule:evenodd;fill:#FFFFFF;}
	.st1{fill:#F9BA87;}
	.st2{fill:#F49B56;}
	.st3{fill:#ED6B06;}
	
		.st4{clip-path:url(#SVGID_00000021824868744023201650000002021082026501673406_);fill-rule:evenodd;clip-rule:evenodd;fill:#EC6608;}
	.st5{clip-path:url(#SVGID_00000141430772371158983930000016846752906953512069_);fill:#F49C56;}
</style>
<g>
	<rect x="0" y="0.18" class="st0" width="1133.76" height="226.77"/>
	<path class="st1" d="M178.73 93.73c-1.2-11.91-14.75-21.66-30.27-21.79c-15.49-0.12-27.1,9.43-25.87,21.33
		c1.22,11.9,14.78,21.68,30.27,21.8C168.37 115.2 179.96 105.63 178.73 93.73M127.44 90.73c-1.03-9.59,9.02-17.3,22.5-17.19
		c13.47,0.1,25.25,7.98,26.31,17.56c1.06,9.62-9.02,17.32-22.49,17.22C140.28 108.22 128.5 100.35 127.44 90.73"/>
	<path class="st2" d="M127.02 89.11c-8.86,9.26-9.01,23.53-0.33,31.87c8.7,8.31,22.96,7.56,31.85-1.73
		c8.87-9.28,9.02-23.53,0.31-31.87C150.17 79.07 135.91 79.83 127.02 89.11M155.33 115.3c-7.64,7.97-19.9,8.63-27.38,1.46
		c-7.49-7.14-7.36-19.44,0.28-27.4c7.64-7.98,19.9-8.65,27.39-1.48C163.1 95.06 162.98 107.32 155.33 115.3"/>
	<path class="st3" d="M113.11 64.35c-16.5,13.05-20.68,31.97-9.39,42.23c11.3,10.26,33.84,8.03,50.31-5.02
		c16.49-13.05,20.68-31.95,9.38-42.23C152.11 49.06 129.57 51.31 113.11 64.35M127.84 59.24c15.9-5.95,31.59,0.07,35.09,13.45c3.48,13.38-6.55,29.06-22.45,35.01c-15.87,5.96-31.6-0.07-35.07-13.45
		C101.91 80.87 111.97 65.2 127.84 59.24"/>
	<path d="M104.33 151.7h-4.37v-10.2h-4.29c0,0.27,0,18.16,0,18.16c-0.03,1.96-0.91,3.23-1.78,3.83l0-0.02
		c-1.54,1.06-4.77,1.04-4.77,1.04h0h-4.9v-4.97h-4.28v4.97h-7.73v3.22c0.21,0,11.51,0,17.06,0c0.15,0,4.7-0.02,6.29-1.71
		c0.06-0.07,0.1-0.13,0.12-0.18v5.89h4.28v-16.73h4.37"/>
	<rect x="76.93" y="140.11" width="9.82" height="2.79"/>
	<rect x="72.39" y="143.88" width="19.12" height="2.7"/>
	<path d="M81.88 157.39c-2.26-0.01-4.09-1.68-4.08-3.72c0.02-2.05,1.86-3.48,4.12-3.48c2.27,0.01,4.09,1.46,4.09,3.51
		C86 155.74 84.15 157.4 81.88 157.39M81.92 147.52c-4.84,0-8.17,2.81-8.17,6.27c0,3.03,3.31,6.27,8.17,6.27
		c4.95,0,8.16-3.33,8.16-6.27C90.08 150.33 86.91 147.52 81.92 147.52"/>
	<path d="M68.43 151.85c0.01-0.24,0-3.02,0-3.26h-4.38v-7.08h-4.28v20.89h4.28v-10.54"/>
	<path d="M63.97 168.48h-16.08c-0.92,0-1.56-0.32-2.05-0.88c-0.62-0.69-0.7-1.6-0.69-2.7v-3.13h-4.31v4.81
		c-0.01,1.29,0.31,5.13,5.77,5.15h17.37"/>
	<rect x="41.12" y="140.11" width="9.78" height="2.78"/>
	<path d="M46.08 157.34c-2.26-0.01-4.07-1.67-4.07-3.71c0.01-2.04,1.84-3.47,4.1-3.46c2.26,0.01,4.07,1.45,4.06,3.49
		C50.17 155.7 48.34 157.34 46.08 157.34M46.11 147.51c-4.82,0-8.13,2.8-8.13,6.25c0,3.02,3.3,6.25,8.13,6.25
		c4.92,0,8.14-3.31,8.14-6.25C54.24 150.31 51.08 147.51 46.11 147.51"/>
	<rect x="36.61" y="143.86" width="19.03" height="2.68"/>
	<polyline points="125.64 162.66 125.64 171.72 121.34 171.72 121.34 162.66 108.07 162.66 108.07 159.42 139.02 159.42 139.02 162.66"/>
	<path d="M117.89 154.03h17.42v2.87h-17.73c-5.46,0-5.81-4.35-5.8-4.88v-10.24h23.53v2.83H116.1v3.07c0,0,0.01,0.03,0.01,0.05h19.2
		v2.83h-19.28v1.63C116.13 153.71 117.32 153.98 117.89 154.03"/>
	<path d="M192.72 170c-2.76-0.01-7.1-0.45-7.09-3.32c0.02-2.71,4.36-3.24,7.12-3.22c2.75,0.01,7.09,0.58,7.08,3.29
		C199.83 169.55 195.48 170.01 192.72 170M192.77 160.75c-5.53,0-11.56,1.02-11.56,5.92c0,4.88,5.96,6.01,11.51,6.01
		c5.68,0,11.56-0.84,11.56-5.91C204.28 161.93 198.44 160.75 192.77 160.75"/>
	<path d="M205.51 141.77h-25.54v3.22h9.74c0,0.54-0.24,1.09-0.45,1.46c-1.72,2.98-6.63,5.06-9.29,5.23v3.02
		c7.23-0.75,11.62-3.99,12.77-5.6c1.15,1.61,5.54,4.85,12.77,5.6v-3.02c-2.67-0.17-7.58-2.25-9.3-5.23
		c-0.22-0.37-0.45-0.84-0.45-1.46h9.74"/>
	<polyline points="194.82 156.15 190.55 156.15 177.24 156.15 177.24 159.37 208.23 159.37 208.23 156.15"/>
	<path d="M224.58 141.78c0,0-11.1,0.01-11.37,0v3.25h10.09c0.92,0.01,1.56,0.31,2.05,0.86c0.62,0.7,0.69,1.6,0.69,2.69v5.29
		c0.24,0,4.04,0.02,4.3,0.02v-6.97C230.33 145.62 230.02 141.81 224.58 141.78"/>
	<polyline points="235.29 163.86 239.59 163.86 239.59 141.53 235.29 141.53 235.29 158.07 228.66 158.07 228.66 160.75 235.29 160.75"/>
	<polyline points="211.97 153.73 232.02 153.73 232.02 156.76 223.29 156.76 223.29 161.28 219.16 161.28 219.16 156.76 211.97 156.76"/>
	<path d="M239.59 168.49h-16.1c-0.92,0-1.57-0.32-2.05-0.88c-0.62-0.69-0.7-1.6-0.7-2.7v-2.17h-4.29v3.85
		c-0.01,1.3,0.31,5.14,5.77,5.16h17.36"/>
	<path d="M173.51 151.71h-4.37v-10.21h-4.26c0,0.26,0.01,29.97,0.01,30.23h4.26c0-0.71-0.01-16.72-0.01-16.72h4.37"/>
	<path d="M154.27 145.69v-0.62H161v-3.3h-17.72v3.3h6.78c0,0.33,0,0.56,0,0.62c0.04,13.51-7.17,14.73-7.3,14.76v3.91
		c5.15-1.34,8.57-6.05,9.39-8.08c0.81,2.04,4.24,6.75,9.38,8.08v-3.95C161.53 160.41 154.22 159.34 154.27 145.69"/>
	<g>
		<defs>
			<rect id="SVGID_1_" x="0" y="0" width="1133.76" height="226.77"/>
		</defs>
		<clipPath id="SVGID_00000029027923149278135780000007118168102331618451_">
			<use xlink:href="#SVGID_1_"  style="overflow:visible;"/>
		</clipPath>
		
			<path style="clip-path:url(#SVGID_00000029027923149278135780000007118168102331618451_);fill-rule:evenodd;clip-rule:evenodd;fill:#EC6608;" d="M280.63 0h853.23v226.77H280.63V0zM0 0"/>
	</g>
	<g>
		<defs>
			<rect id="SVGID_00000030479175388039288800000015441107876364309902_" x="871.57" y="0" width="262.19" height="226.77"/>
		</defs>
		<clipPath id="SVGID_00000176721717591547292300000011286124648783308181_">
			<use xlink:href="#SVGID_00000030479175388039288800000015441107876364309902_"  style="overflow:visible;"/>
		</clipPath>
		<path style="clip-path:url(#SVGID_00000176721717591547292300000011286124648783308181_);fill:#F49C56;" d="M1222.44 122.09c-4.68-41.58-56.99-75.66-116.78-76.11c-59.79-0.45-104.47,32.91-99.77,74.5c4.68,41.59,56.98,75.68,116.78,76.11
			C1182.47 197.04 1227.13 163.68 1222.44 122.09M1024.64 111.68c-4.08-33.54,34.75-60.44,86.7-60.07
			c51.94,0.37,97.37,27.83,101.45,61.36c4.08,33.53-34.73,60.44-86.72,60.08C1074.16 172.69 1028.71 145.23 1024.64 111.68"/>
		<path style="clip-path:url(#SVGID_00000176721717591547292300000011286124648783308181_);fill:#F49C56;" d="M1023.06 105.94c-34.23,32.42-34.81,82.25-1.28,111.33c33.56,29.09,88.51,26.38,122.74-6.01c34.23-32.37,34.78-82.22,1.24-111.32
			C1112.26 70.86 1057.3 73.55 1023.06 105.94M1132.17 197.46c-29.46,27.85-76.71,30.16-105.57,5.15
			c-28.88-25.02-28.38-67.91,1.09-95.78c29.45-27.87,76.73-30.15,105.56-5.14C1162.12 126.69 1161.64 169.59 1132.17 197.46"/>
		<path style="clip-path:url(#SVGID_00000176721717591547292300000011286124648783308181_);fill:#F49C56;" d="M969.3 19.51c-63.57,45.56-79.72,111.6-36.15,147.5c43.59,35.87,130.46,28.03,194.03-17.55c63.53-45.59,79.7-111.63,36.13-147.5
			C1119.69 -33.94 1032.84 -26.08 969.3 19.51M1026.17 1.65c61.26-20.82,121.84,0.24,135.3,46.98
			c13.46,46.73-25.27,101.48-86.52,122.28c-61.24,20.8-121.8-0.25-135.3-46.99C926.19 77.18 964.93 22.43 1026.17 1.65"/>
	</g>
</g>
</svg>
