<?xml version="1.0" encoding="utf-8"?>
<!-- Generator: Adobe Illustrator 28.1.0, SVG Export Plug-In . SVG Version: 6.00 Build 0)  -->
<svg version="1.1" id="Layer_1" xmlns="http://www.w3.org/2000/svg" xmlns:xlink="http://www.w3.org/1999/xlink"  
	 viewBox="0 0 170.08 510.24" xml:space="preserve" x="0px" y="0px">
<style type="text/css">
	
		.st0{clip-path:url(#SVGID_00000156586298947100507060000008074838824624221854_);fill-rule:evenodd;clip-rule:evenodd;fill:#FFFFFF;}
	
		.st1{clip-path:url(#SVGID_00000156586298947100507060000008074838824624221854_);fill-rule:evenodd;clip-rule:evenodd;fill:#ED6B06;}
	.st2{fill-rule:evenodd;clip-rule:evenodd;fill:#ED6B06;}
	.st3{clip-path:url(#SVGID_00000134232469392522435510000008935462739209289371_);fill:#F49C56;}
	.st4{fill:#FFFFFF;}
</style>
<g>
	<g>
		<defs>
			<rect id="SVGID_1_" x="0" y="0" width="170.08" height="510.24"/>
		</defs>
		<clipPath id="SVGID_00000179615434173673368300000017922712457914431107_">
			<use xlink:href="#SVGID_1_"  style="overflow:visible;"/>
		</clipPath>
		
			<rect x="0" y="0" style="clip-path:url(#SVGID_00000179615434173673368300000017922712457914431107_);fill-rule:evenodd;clip-rule:evenodd;fill:#FFFFFF;" width="170.08" height="510.24"/>
		
			<path style="clip-path:url(#SVGID_00000179615434173673368300000017922712457914431107_);fill-rule:evenodd;clip-rule:evenodd;fill:#ED6B06;" d="M0 396.85h170.08v113.39H0V396.85zM0 0"/>
	</g>
	<rect x="0" y="0" class="st2" width="170.08" height="24.81"/>
	<g>
		<defs>
			<rect id="SVGID_00000015329182093201320180000007588863681626799794_" x="108.65" y="0" width="61.43" height="24.81"/>
		</defs>
		<clipPath id="SVGID_00000152255351774074791580000000377433733022870150_">
			<use xlink:href="#SVGID_00000015329182093201320180000007588863681626799794_"  style="overflow:visible;"/>
		</clipPath>
		<path style="clip-path:url(#SVGID_00000152255351774074791580000000377433733022870150_);fill:#F49C56;" d="M187.3 13.77c-0.98-9.57-11.88-17.42-24.35-17.52c-12.47-0.1-21.78,7.58-20.8,17.15c0.98,9.57,11.88,17.42,24.35,17.52
			C178.97 31.03 188.28 23.35 187.3 13.77M146.06 11.38c-0.85-7.72,7.25-13.91,18.08-13.83
			c10.83,0.08,20.3,6.41,21.15,14.13c0.85,7.72-7.24,13.92-18.08,13.83C156.38 25.42 146.9 19.1 146.06 11.38"/>
		<path style="clip-path:url(#SVGID_00000152255351774074791580000000377433733022870150_);fill:#F49C56;" d="M145.73 10.05c-7.14,7.46-7.26,18.93-0.27,25.63c7,6.7,18.46,6.07,25.59-1.38c7.14-7.45,7.25-18.93,0.26-25.63
			C164.33 1.98 152.87 2.6 145.73 10.05M168.48 31.12c-6.14,6.41-16,6.94-22.01,1.19c-6.02-5.76-5.92-15.63,0.23-22.05
			c6.14-6.42,16-6.94,22.01-1.18C174.72 14.83 174.62 24.71 168.48 31.12"/>
		<path style="clip-path:url(#SVGID_00000152255351774074791580000000377433733022870150_);fill:#F49C56;" d="M134.52 -9.84c-13.26,10.49-16.62,25.69-7.54,33.96c9.09,8.26,27.2,6.45,40.46-4.04c13.25-10.5,16.62-25.7,7.53-33.96
			C165.88 -22.15 147.76 -20.34 134.52 -9.84M146.37 -13.95c12.77-4.79,25.41,0.06,28.21,10.82
			c2.81,10.76-5.27,23.36-18.04,28.15c-12.77,4.79-25.4-0.06-28.21-10.82C125.53 3.43 133.61 -9.17 146.37 -13.95"/>
	</g>
	<path class="st4" d="M58.78 456.16c-0.45-4.39-5.45-7.99-11.17-8.04c-5.72-0.05-10,3.48-9.55,7.87c0.45,4.39,5.45,8,11.17,8.04
		C54.96 464.08 59.23 460.56 58.78 456.16M39.86 455.06c-0.39-3.54,3.32-6.39,8.3-6.35c4.97,0.04,9.32,2.94,9.71,6.48
		c0.39,3.54-3.32,6.39-8.3,6.35C44.59 461.51 40.25 458.61 39.86 455.06"/>
	<path class="st4" d="M39.7 454.46c-3.28,3.42-3.33,8.69-0.12,11.76c3.21,3.07,8.47,2.79,11.75-0.63s3.33-8.69,0.12-11.76
		C48.24 450.75 42.98 451.03 39.7 454.46M50.15 464.12c-2.82,2.94-7.34,3.19-10.1,0.54c-2.76-2.64-2.72-7.17,0.1-10.12
		c2.82-2.94,7.34-3.19,10.1-0.54C53.01 456.65 52.97 461.18 50.15 464.12"/>
	<path class="st4" d="M34.56 445.32c-6.08,4.81-7.63,11.79-3.46,15.58c4.17,3.79,12.48,2.96,18.57-1.85
		c6.08-4.82,7.63-11.79,3.46-15.58C48.95 439.68 40.64 440.51 34.56 445.32M40 443.44c5.86-2.2,11.66,0.03,12.95,4.96
		c1.29,4.94-2.42,10.72-8.28,12.92c-5.86,2.2-11.66-0.03-12.95-4.96C30.44 451.42 34.14 445.63 40 443.44"/>
	<path class="st4" d="M88 453.06h-1.61v-3.76h-1.58c0,0.1,0,6.7,0,6.7c-0.01,0.72-0.33,1.19-0.66,1.41l0-0.01
		c-0.57,0.39-1.76,0.38-1.76,0.38h0h-1.81v-1.83h-1.58v1.83h-2.85v1.19c0.08,0,4.24,0,6.29,0c0.06,0,1.73-0.01,2.32-0.63
		c0.02-0.03,0.04-0.05,0.04-0.07v2.17h1.58v-6.17H88"/>
	<rect x="77.9" y="448.79" class="st4" width="3.62" height="1.03"/>
	<rect x="76.23" y="450.17" class="st4" width="7.05" height="1"/>
	<path class="st4" d="M79.73 455.16c-0.83,0-1.51-0.62-1.51-1.37c0.01-0.76,0.69-1.28,1.52-1.28c0.84,0,1.51,0.54,1.51,1.29
		C81.25 454.55 80.56 455.16 79.73 455.16M79.74 451.52c-1.78,0-3.01,1.04-3.01,2.31c0,1.12,1.22,2.31,3.01,2.31
		c1.82,0,3.01-1.22,3.01-2.31C82.75 452.55 81.58 451.52 79.74 451.52"/>
	<path class="st4" d="M74.77 453.11v-1.2h-1.62v-2.61h-1.58v7.7h1.58c0-0.1,0-3.89,0-3.89"/>
	<path class="st4" d="M73.12 459.25h-5.93c-0.34,0-0.58-0.12-0.76-0.32c-0.23-0.26-0.26-0.59-0.25-0.99v-1.16h-1.59v1.77
		c0,0.48,0.12,1.89,2.13,1.9h6.4"/>
	<rect x="64.7" y="448.78" class="st4" width="3.61" height="1.03"/>
	<path class="st4" d="M66.52 455.14c-0.83,0-1.5-0.62-1.5-1.37c0-0.75,0.68-1.28,1.51-1.28c0.83,0,1.5,0.54,1.5,1.29
		C68.03 454.53 67.36 455.14 66.52 455.14M66.53 451.51c-1.78,0-3,1.03-3,2.3c0,1.11,1.22,2.3,3,2.3c1.82,0,3-1.22,3-2.3
		C69.53 452.54 68.37 451.51 66.53 451.51"/>
	<rect x="63.03" y="450.17" class="st4" width="7.02" height="0.99"/>
	<polyline class="st4" points="95.86 457.1 95.86 460.44 94.28 460.44 94.28 457.1 89.38 457.1 89.38 455.9 100.8 455.9 100.8 457.1"/>
	<path class="st4" d="M93.01 453.92h6.42v1.06h-6.54c-2.01,0-2.14-1.6-2.14-1.8v-3.78h8.68v1.05h-7.08v1.13c0,0,0,0.01,0,0.02
		h7.08v1.04h-7.11v0.6C92.36 453.8 92.8 453.9 93.01 453.92"/>
	<path class="st4" d="M120.6 459.81c-1.02,0-2.62-0.17-2.61-1.22c0-1,1.6-1.2,2.62-1.19c1.02,0.01,2.62,0.22,2.61,1.22
		C123.23 459.64 121.62 459.81 120.6 459.81M120.62 456.4c-2.04,0-4.26,0.38-4.26,2.18c0,1.8,2.2,2.22,4.25,2.22
		c2.1,0,4.27-0.31,4.27-2.18C124.87 456.83 122.71 456.4 120.62 456.4"/>
	<path class="st4" d="M125.32 449.4h-9.42v1.19h3.59c0,0.2-0.09,0.4-0.17,0.54c-0.63,1.1-2.44,1.86-3.43,1.93v1.11
		c2.66-0.28,4.29-1.47,4.71-2.06c0.42,0.59,2.04,1.79,4.71,2.06v-1.11c-0.98-0.06-2.79-0.83-3.43-1.93
		c-0.08-0.14-0.16-0.31-0.16-0.54h3.59"/>
	<polyline class="st4" points="121.38 454.7 119.8 454.7 114.9 454.7 114.9 455.89 126.32 455.89 126.32 454.7"/>
	<path class="st4" d="M132.35 449.4h-4.19v1.2h3.72c0.34,0,0.58,0.11,0.76,0.32c0.23,0.26,0.25,0.59,0.25,0.99v1.95
		c0.09,0,1.49,0.01,1.58,0.01v-2.57C134.47 450.82 134.36 449.41 132.35 449.4"/>
	<polyline class="st4" points="136.3 457.54 137.89 457.54 137.89 449.31 136.3 449.31 136.3 455.41 133.86 455.41 133.86 456.4 136.3 456.4"/>
	<polyline class="st4" points="127.7 453.81 135.09 453.81 135.09 454.92 131.88 454.92 131.88 456.59 130.35 456.59 130.35 454.92 127.7 454.92"/>
	<path class="st4" d="M137.89 459.25h-5.94c-0.34,0-0.58-0.12-0.76-0.32c-0.23-0.26-0.26-0.59-0.26-1v-0.8h-1.58v1.42
		c0,0.48,0.12,1.9,2.13,1.9h6.4"/>
	<path class="st4" d="M113.52 453.06h-1.61v-3.77h-1.57c0,0.09,0,11.05,0,11.15h1.57c0-0.26,0-6.17,0-6.17h1.61"/>
	<path class="st4" d="M106.42 450.84v-0.23h2.48v-1.22h-6.54v1.22h2.5c0,0.12,0,0.21,0,0.23c0.02,4.98-2.64,5.43-2.69,5.44v1.44
		c1.9-0.49,3.16-2.23,3.46-2.98c0.3,0.75,1.57,2.49,3.46,2.98v-1.46C109.1 456.27 106.4 455.88 106.42 450.84"/>
</g>
</svg>
