<?xml version="1.0" encoding="UTF-8"?>
<svg id="Layer_1" xmlns="http://www.w3.org/2000/svg" version="1.1" viewBox="0 0 170.08 510.24">
  <!-- Generator: Adobe Illustrator 30.0.0, SVG Export Plug-In . SVG Version: 2.1.1 Build 123)  -->
  <defs>
    <style>
      .st0 {
        fill: #fff;
      }

      .st1 {
        fill: #ed6b06;
      }

      .st2 {
        fill: #f49c56;
      }
    </style>
  </defs>
  <rect class="st1" width="170.08" height="24.81"/>
  <g>
    <path class="st2" d="M168.71,9.08c.51.48.95,1.01,1.37,1.54v-3.01c-6.94-5.46-17.31-4.6-24.06,2.16.21-4.06,2.92-7.57,7.15-9.77h-4.04c-4.78,3.14-7.55,7.96-6.99,13.4.05.47.13.93.22,1.39-1.61,3.18-2.29,6.66-2.01,10.02h1.99c-.56-2.68-.38-5.51.52-8.2,1.07,3.09,3.17,5.91,5.98,8.2h12.37c-.26-.06-.52-.14-.78-.2,2.43-1.26,4.78-2.77,7-4.53.93-.74,1.81-1.5,2.64-2.28v-2.73c-2.84,3.7-6.73,6.89-11.36,9.04-6.9-2.29-12.05-7.13-12.66-12.72-.01-.12,0-.24-.01-.37.22-.25.42-.51.65-.75,6.14-6.42,16-6.94,22.01-1.18Z"/>
    <path class="st2" d="M128.33,14.2c-1.21-4.65-.39-9.64,1.96-14.2h-4.63c-5.3,8.75-5.18,18.21,1.32,24.12.26.24.54.47.81.69h9.46c-4.38-2.11-7.65-5.75-8.92-10.61Z"/>
  </g>
  <rect class="st1" y="397.5" width="170.08" height="112.74"/>
  <g>
    <g>
      <path class="st0" d="M41.58,448.86c-.4-3.63,3.41-6.55,8.5-6.5,5.09.04,9.55,3.01,9.95,6.64.4,3.63-3.4,6.54-8.5,6.5-5.09-.04-9.55-3.01-9.95-6.64M60.98,449.98c-.46-4.5-5.59-8.19-11.45-8.24-5.87-.05-10.24,3.56-9.78,8.06.46,4.5,5.59,8.19,11.45,8.24,5.86.05,10.24-3.56,9.78-8.07"/>
      <path class="st0" d="M52.12,458.14c-2.89,3.02-7.52,3.27-10.35.56-2.83-2.71-2.78-7.35.11-10.37,2.89-3.02,7.53-3.27,10.35-.56,2.83,2.71,2.78,7.35-.11,10.37M41.43,448.24c-3.36,3.51-3.41,8.9-.12,12.05,3.29,3.15,8.68,2.86,12.03-.65,3.36-3.51,3.41-8.9.12-12.05-3.29-3.15-8.68-2.86-12.03.65"/>
      <path class="st0" d="M41.73,436.94c6.01-2.25,11.95.03,13.27,5.09,1.32,5.06-2.48,10.99-8.48,13.24-6.01,2.25-11.95-.02-13.27-5.08-1.32-5.06,2.48-10.98,8.48-13.24M36.15,438.88c-6.23,4.93-7.82,12.08-3.54,15.97,4.27,3.89,12.79,3.03,19.02-1.9,6.23-4.93,7.82-12.08,3.54-15.96-4.28-3.88-12.79-3.04-19.02,1.9"/>
    </g>
    <g>
      <path class="st0" d="M72.16,445.47h-7v-1.12h7v1.12ZM68.66,450.39c-.88,0-1.6-.22-2.16-.67-.55-.45-.83-.98-.83-1.61s.28-1.15.83-1.59c.55-.45,1.27-.67,2.16-.67s1.6.22,2.16.67c.55.45.83.98.83,1.59s-.28,1.16-.83,1.61c-.55.45-1.27.67-2.16.67ZM69.2,452.96h6.05v1.2h-6.43c-1.39,0-2.08-.65-2.08-1.94v-1.25h1.56v1.07c0,.62.3.92.9.92ZM66.87,442.82h3.59v1.13h-3.59v-1.13ZM68.66,449.3c.41,0,.76-.11,1.05-.34.29-.23.44-.51.44-.85s-.15-.61-.44-.83c-.29-.23-.64-.34-1.05-.34s-.76.11-1.05.34c-.29.23-.44.5-.44.83s.15.62.44.85c.29.23.64.34,1.05.34ZM75.19,445.88h1.61v1.22h-1.61v3.94h-1.55v-8.02h1.55v2.86Z"/>
      <path class="st0" d="M80.86,450.32c-.55-.1-1.03-.3-1.42-.62-.54-.44-.81-.97-.81-1.59s.28-1.15.83-1.59c.55-.45,1.27-.67,2.16-.67s1.6.22,2.16.67c.55.45.83.98.83,1.59s-.27,1.14-.81,1.59c-.38.31-.85.52-1.39.62v1.18h1.73c1.56,0,2.34-.6,2.34-1.81v-6.68h1.55v3.75h1.61v1.24h-1.61v6.19h-1.55v-2.09c-.47.42-1.16.62-2.08.62h-6.55v-1.21h3v-1.18ZM85.1,445.47h-7v-1.12h7v1.12ZM79.84,442.82h3.59v1.13h-3.59v-1.13ZM81.63,449.3c.41,0,.76-.11,1.05-.34.29-.23.44-.51.44-.85s-.15-.61-.44-.83c-.29-.23-.64-.34-1.05-.34s-.76.11-1.05.34c-.29.23-.44.5-.44.83s.15.62.44.85c.29.23.64.34,1.05.34Z"/>
      <path class="st0" d="M102.11,451.08h-4.92v3.11h-1.59v-3.11h-4.9v-1.24h11.41v1.24ZM93.52,446.5v.48c0,.42.24.62.72.62h6.66v1.18h-6.85c-1.38,0-2.07-.57-2.07-1.7v-3.94h8.84v1.18h-7.3v1h7.3v1.17h-7.3Z"/>
      <path class="st0" d="M106.55,444.9v-.49h-2.65v-1.21h6.83v1.21h-2.64v.49c0,1.83.32,3.2.96,4.11.52.74,1.16,1.29,1.92,1.65v1.22c-1.14-.36-2.14-1.01-2.98-1.96-.26-.29-.49-.63-.68-1.01-.19.38-.42.72-.68,1.01-.84.95-1.83,1.61-2.98,1.96v-1.22c.76-.36,1.4-.91,1.92-1.65.64-.91.96-2.28.96-4.11ZM115.35,447.98h-1.66v6.2h-1.55v-11.17h1.55v3.72h1.66v1.25Z"/>
      <path class="st0" d="M116.41,448.26h11.41v1.24h-11.41v-1.24ZM126.77,444.32h-3.78c.19.55.65,1.05,1.38,1.52.67.43,1.53.64,2.58.64v1.16c-1.27.03-2.43-.21-3.47-.74-.56-.29-1.01-.64-1.35-1.05-.35.42-.8.77-1.37,1.05-1.04.53-2.2.78-3.47.74v-1.16c1.05,0,1.91-.21,2.58-.64.73-.47,1.19-.98,1.38-1.52h-3.77v-1.17h9.31v1.17ZM126.55,452.24c0,.73-.39,1.27-1.17,1.61s-1.86.52-3.25.52-2.47-.17-3.25-.52-1.17-.88-1.17-1.61.39-1.27,1.17-1.61c.78-.35,1.86-.52,3.25-.52s2.47.17,3.25.52c.78.35,1.17.88,1.17,1.61ZM122.12,453.19c.87,0,1.55-.07,2.06-.21.51-.14.76-.38.76-.72s-.25-.59-.76-.74c-.51-.15-1.19-.22-2.06-.22s-1.53.07-2.04.22c-.51.15-.77.39-.77.74s.26.58.77.72c.51.14,1.19.21,2.04.21Z"/>
      <path class="st0" d="M134.59,443.14c1.31,0,1.96.59,1.96,1.77v2.29h.91v1.18h-3.93v2.16h-1.55v-2.16h-2.68v-1.18h5.71v-2.05c0-.56-.32-.85-.96-.85h-4.1v-1.16h4.63ZM133.44,452.96h6.42v1.2h-6.85c-1.39,0-2.08-.69-2.08-2.07v-1.08h1.55v.98c0,.65.32.98.96.98ZM139.84,443.01v8.52h-1.55v-1.16h-2.97v-1.14h2.97v-6.22h1.55Z"/>
    </g>
  </g>
</svg>
