<?xml version="1.0" encoding="utf-8"?>
<!-- Generator: Adobe Illustrator 28.1.0, SVG Export Plug-In . SVG Version: 6.00 Build 0)  -->
<svg version="1.1" id="Layer_1" xmlns="http://www.w3.org/2000/svg" xmlns:xlink="http://www.w3.org/1999/xlink" x="0px" y="0px"
	 viewBox="0 0 170.08 510.24" xml:space="preserve">
<style type="text/css">
	
		.st0{clip-path:url(#SVGID_00000156586298947100507060000008074838824624221854_);fill-rule:evenodd;clip-rule:evenodd;fill:#FFFFFF;}
	
		.st1{clip-path:url(#SVGID_00000156586298947100507060000008074838824624221854_);fill-rule:evenodd;clip-rule:evenodd;fill:#ED6B06;}
	.st2{fill-rule:evenodd;clip-rule:evenodd;fill:#ED6B06;}
	.st3{clip-path:url(#SVGID_00000134232469392522435510000008935462739209289371_);fill:#F49C56;}
	.st4{fill:#FFFFFF;}
</style>
<g transform="translate(-878,-809.82)">
	<g>
		<defs>
			<rect id="SVGID_1_" x="878" y="809.82" width="170.08" height="510.24"/>
		</defs>
		<clipPath id="SVGID_00000179615434173673368300000017922712457914431107_">
			<use xlink:href="#SVGID_1_"  style="overflow:visible;"/>
		</clipPath>
		
			<rect x="878" y="809.82" style="clip-path:url(#SVGID_00000179615434173673368300000017922712457914431107_);fill-rule:evenodd;clip-rule:evenodd;fill:#FFFFFF;" width="170.08" height="510.24"/>
		
			<path style="clip-path:url(#SVGID_00000179615434173673368300000017922712457914431107_);fill-rule:evenodd;clip-rule:evenodd;fill:#ED6B06;" d="
			M878,1206.67h170.08v113.39H878V1206.67z M878,809.82"/>
	</g>
	<rect x="878" y="809.82" class="st2" width="170.08" height="24.81"/>
	<g>
		<defs>
			<rect id="SVGID_00000015329182093201320180000007588863681626799794_" x="986.65" y="809.82" width="61.43" height="24.81"/>
		</defs>
		<clipPath id="SVGID_00000152255351774074791580000000377433733022870150_">
			<use xlink:href="#SVGID_00000015329182093201320180000007588863681626799794_"  style="overflow:visible;"/>
		</clipPath>
		<path style="clip-path:url(#SVGID_00000152255351774074791580000000377433733022870150_);fill:#F49C56;" d="M1065.3,823.59
			c-0.98-9.57-11.88-17.42-24.35-17.52c-12.47-0.1-21.78,7.58-20.8,17.15c0.98,9.57,11.88,17.42,24.35,17.52
			C1056.97,840.85,1066.28,833.17,1065.3,823.59 M1024.06,821.2c-0.85-7.72,7.25-13.91,18.08-13.83
			c10.83,0.08,20.3,6.41,21.15,14.13c0.85,7.72-7.24,13.92-18.08,13.83C1034.38,835.24,1024.9,828.92,1024.06,821.2"/>
		<path style="clip-path:url(#SVGID_00000152255351774074791580000000377433733022870150_);fill:#F49C56;" d="M1023.73,819.87
			c-7.14,7.46-7.26,18.93-0.27,25.63c7,6.7,18.46,6.07,25.59-1.38c7.14-7.45,7.25-18.93,0.26-25.63
			C1042.33,811.8,1030.87,812.42,1023.73,819.87 M1046.48,840.94c-6.14,6.41-16,6.94-22.01,1.19c-6.02-5.76-5.92-15.63,0.23-22.05
			c6.14-6.42,16-6.94,22.01-1.18C1052.72,824.65,1052.62,834.53,1046.48,840.94"/>
		<path style="clip-path:url(#SVGID_00000152255351774074791580000000377433733022870150_);fill:#F49C56;" d="M1012.52,799.98
			c-13.26,10.49-16.62,25.69-7.54,33.96c9.09,8.26,27.2,6.45,40.46-4.04c13.25-10.5,16.62-25.7,7.53-33.96
			C1043.88,787.67,1025.76,789.48,1012.52,799.98 M1024.37,795.87c12.77-4.79,25.41,0.06,28.21,10.82
			c2.81,10.76-5.27,23.36-18.04,28.15c-12.77,4.79-25.4-0.06-28.21-10.82C1003.53,813.25,1011.61,800.65,1024.37,795.87"/>
	</g>
	<path class="st4" d="M936.78,1265.98c-0.45-4.39-5.45-7.99-11.17-8.04c-5.72-0.05-10,3.48-9.55,7.87c0.45,4.39,5.45,8,11.17,8.04
		C932.96,1273.9,937.23,1270.38,936.78,1265.98 M917.86,1264.88c-0.39-3.54,3.32-6.39,8.3-6.35c4.97,0.04,9.32,2.94,9.71,6.48
		c0.39,3.54-3.32,6.39-8.3,6.35C922.59,1271.33,918.25,1268.43,917.86,1264.88"/>
	<path class="st4" d="M917.7,1264.28c-3.28,3.42-3.33,8.69-0.12,11.76c3.21,3.07,8.47,2.79,11.75-0.63s3.33-8.69,0.12-11.76
		C926.24,1260.57,920.98,1260.85,917.7,1264.28 M928.15,1273.94c-2.82,2.94-7.34,3.19-10.1,0.54c-2.76-2.64-2.72-7.17,0.1-10.12
		c2.82-2.94,7.34-3.19,10.1-0.54C931.01,1266.47,930.97,1271,928.15,1273.94"/>
	<path class="st4" d="M912.56,1255.14c-6.08,4.81-7.63,11.79-3.46,15.58c4.17,3.79,12.48,2.96,18.57-1.85
		c6.08-4.82,7.63-11.79,3.46-15.58C926.95,1249.5,918.64,1250.33,912.56,1255.14 M918,1253.26c5.86-2.2,11.66,0.03,12.95,4.96
		c1.29,4.94-2.42,10.72-8.28,12.92c-5.86,2.2-11.66-0.03-12.95-4.96C908.44,1261.24,912.14,1255.45,918,1253.26"/>
	<path class="st4" d="M966,1262.88h-1.61v-3.76h-1.58c0,0.1,0,6.7,0,6.7c-0.01,0.72-0.33,1.19-0.66,1.41l0-0.01
		c-0.57,0.39-1.76,0.38-1.76,0.38h0h-1.81v-1.83h-1.58v1.83h-2.85v1.19c0.08,0,4.24,0,6.29,0c0.06,0,1.73-0.01,2.32-0.63
		c0.02-0.03,0.04-0.05,0.04-0.07v2.17h1.58v-6.17H966"/>
	<rect x="955.9" y="1258.61" class="st4" width="3.62" height="1.03"/>
	<rect x="954.23" y="1259.99" class="st4" width="7.05" height="1"/>
	<path class="st4" d="M957.73,1264.98c-0.83,0-1.51-0.62-1.51-1.37c0.01-0.76,0.69-1.28,1.52-1.28c0.84,0,1.51,0.54,1.51,1.29
		C959.25,1264.37,958.56,1264.98,957.73,1264.98 M957.74,1261.34c-1.78,0-3.01,1.04-3.01,2.31c0,1.12,1.22,2.31,3.01,2.31
		c1.82,0,3.01-1.22,3.01-2.31C960.75,1262.37,959.58,1261.34,957.74,1261.34"/>
	<path class="st4" d="M952.77,1262.93v-1.2h-1.62v-2.61h-1.58v7.7h1.58c0-0.1,0-3.89,0-3.89"/>
	<path class="st4" d="M951.12,1269.07h-5.93c-0.34,0-0.58-0.12-0.76-0.32c-0.23-0.26-0.26-0.59-0.25-0.99v-1.16h-1.59v1.77
		c0,0.48,0.12,1.89,2.13,1.9h6.4"/>
	<rect x="942.7" y="1258.6" class="st4" width="3.61" height="1.03"/>
	<path class="st4" d="M944.52,1264.96c-0.83,0-1.5-0.62-1.5-1.37c0-0.75,0.68-1.28,1.51-1.28c0.83,0,1.5,0.54,1.5,1.29
		C946.03,1264.35,945.36,1264.96,944.52,1264.96 M944.53,1261.33c-1.78,0-3,1.03-3,2.3c0,1.11,1.22,2.3,3,2.3c1.82,0,3-1.22,3-2.3
		C947.53,1262.36,946.37,1261.33,944.53,1261.33"/>
	<rect x="941.03" y="1259.99" class="st4" width="7.02" height="0.99"/>
	<polyline class="st4" points="973.86,1266.92 973.86,1270.26 972.28,1270.26 972.28,1266.92 967.38,1266.92 967.38,1265.72 
		978.8,1265.72 978.8,1266.92 	"/>
	<path class="st4" d="M971.01,1263.74h6.42v1.06h-6.54c-2.01,0-2.14-1.6-2.14-1.8v-3.78h8.68v1.05h-7.08v1.13c0,0,0,0.01,0,0.02
		h7.08v1.04h-7.11v0.6C970.36,1263.62,970.8,1263.72,971.01,1263.74"/>
	<path class="st4" d="M998.6,1269.63c-1.02,0-2.62-0.17-2.61-1.22c0-1,1.6-1.2,2.62-1.19c1.02,0.01,2.62,0.22,2.61,1.22
		C1001.23,1269.46,999.62,1269.63,998.6,1269.63 M998.62,1266.22c-2.04,0-4.26,0.38-4.26,2.18c0,1.8,2.2,2.22,4.25,2.22
		c2.1,0,4.27-0.31,4.27-2.18C1002.87,1266.65,1000.71,1266.22,998.62,1266.22"/>
	<path class="st4" d="M1003.32,1259.22h-9.42v1.19h3.59c0,0.2-0.09,0.4-0.17,0.54c-0.63,1.1-2.44,1.86-3.43,1.93v1.11
		c2.66-0.28,4.29-1.47,4.71-2.06c0.42,0.59,2.04,1.79,4.71,2.06v-1.11c-0.98-0.06-2.79-0.83-3.43-1.93
		c-0.08-0.14-0.16-0.31-0.16-0.54h3.59"/>
	<polyline class="st4" points="999.38,1264.52 997.8,1264.52 992.9,1264.52 992.9,1265.71 1004.32,1265.71 1004.32,1264.52 	"/>
	<path class="st4" d="M1010.35,1259.22h-4.19v1.2h3.72c0.34,0,0.58,0.11,0.76,0.32c0.23,0.26,0.25,0.59,0.25,0.99v1.95
		c0.09,0,1.49,0.01,1.58,0.01v-2.57C1012.47,1260.64,1012.36,1259.23,1010.35,1259.22"/>
	<polyline class="st4" points="1014.3,1267.36 1015.89,1267.36 1015.89,1259.13 1014.3,1259.13 1014.3,1265.23 1011.86,1265.23 
		1011.86,1266.22 1014.3,1266.22 	"/>
	<polyline class="st4" points="1005.7,1263.63 1013.09,1263.63 1013.09,1264.74 1009.88,1264.74 1009.88,1266.41 1008.35,1266.41 
		1008.35,1264.74 1005.7,1264.74 	"/>
	<path class="st4" d="M1015.89,1269.07h-5.94c-0.34,0-0.58-0.12-0.76-0.32c-0.23-0.26-0.26-0.59-0.26-1v-0.8h-1.58v1.42
		c0,0.48,0.12,1.9,2.13,1.9h6.4"/>
	<path class="st4" d="M991.52,1262.88h-1.61v-3.77h-1.57c0,0.09,0,11.05,0,11.15h1.57c0-0.26,0-6.17,0-6.17h1.61"/>
	<path class="st4" d="M984.42,1260.66v-0.23h2.48v-1.22h-6.54v1.22h2.5c0,0.12,0,0.21,0,0.23c0.02,4.98-2.64,5.43-2.69,5.44v1.44
		c1.9-0.49,3.16-2.23,3.46-2.98c0.3,0.75,1.57,2.49,3.46,2.98v-1.46C987.1,1266.09,984.4,1265.7,984.42,1260.66"/>
</g>
</svg>
