<svg xmlns="http://www.w3.org/2000/svg" xmlns:xlink="http://www.w3.org/1999/xlink" version="1.1" width="1133.76" height="226.77" viewBox="0 0 1133.76 226.77" xml:space="preserve">
<desc>Created with Fabric.js 7.3.1</desc>
<defs>
</defs>
<rect x="0" y="0" width="100%" height="100%" fill="#fff"></rect>
<g transform="matrix(1 0 0 1 611.389 108.4361)"  >
<g style=""   >
		<g transform="matrix(1 0 0 1 -44.509 4.9489)" id="Layer_1"  >
<rect style="stroke: none; stroke-width: 1; stroke-dasharray: none; stroke-linecap: butt; stroke-dashoffset: 0; stroke-linejoin: miter; stroke-miterlimit: 4; fill: rgb(255,255,255); fill-rule: evenodd; opacity: 1;"  x="-566.88" y="-113.385" rx="0" ry="0" width="1133.76" height="226.77" />
</g>
		<g transform="matrix(1 0 0 1 -460.729 -14.931)" id="Layer_1"  >
<path style="stroke: none; stroke-width: 1; stroke-dasharray: none; stroke-linecap: butt; stroke-dashoffset: 0; stroke-linejoin: miter; stroke-miterlimit: 4; fill: rgb(249,186,135); fill-rule: nonzero; opacity: 1;"  transform=" translate(-546.6601, -1045.3251)" d="M 574.73 1045.55 C 573.53 1033.64 559.98 1023.89 544.46 1023.76 C 528.97 1023.64 517.36 1033.19 518.59 1045.09 C 519.81 1056.99 533.37 1066.77 548.86 1066.89 C 564.37 1067.02 575.96 1057.45 574.73 1045.55 M 523.44 1042.55 C 522.41 1032.96 532.46 1025.25 545.94 1025.36 C 559.41 1025.46 571.19 1033.34 572.25 1042.92 C 573.31 1052.54 563.23 1060.24 549.76 1060.14 C 536.28 1060.04 524.5 1052.17 523.44 1042.55" stroke-linecap="round" />
</g>
		<g transform="matrix(1 0 0 1 -468.6066 -4.2543)" id="Layer_1"  >
<path style="stroke: none; stroke-width: 1; stroke-dasharray: none; stroke-linecap: butt; stroke-dashoffset: 0; stroke-linejoin: miter; stroke-miterlimit: 4; fill: rgb(244,155,86); fill-rule: nonzero; opacity: 1;"  transform=" translate(-538.7824, -1056.0017)" d="M 523.02 1040.93 C 514.16 1050.19 514.01 1064.46 522.69 1072.8 C 531.39 1081.11 545.65 1080.36 554.54 1071.07 C 563.41 1061.79 563.56 1047.54 554.85 1039.2 C 546.17 1030.89 531.91 1031.65 523.02 1040.93 M 551.33 1067.12 C 543.69 1075.09 531.43 1075.75 523.95 1068.58 C 516.46 1061.44 516.59 1049.14 524.23 1041.18 C 531.87 1033.2 544.13 1032.53 551.62 1039.7 C 559.1 1046.88 558.98 1059.14 551.33 1067.12" stroke-linecap="round" />
</g>
		<g transform="matrix(1 0 0 1 -477.8216 -25.4816)" id="Layer_1"  >
<path style="stroke: none; stroke-width: 1; stroke-dasharray: none; stroke-linecap: butt; stroke-dashoffset: 0; stroke-linejoin: miter; stroke-miterlimit: 4; fill: rgb(237,107,6); fill-rule: nonzero; opacity: 1;"  transform=" translate(-529.5675, -1034.7744)" d="M 509.11 1016.17 C 492.61 1029.22 488.43 1048.14 499.72 1058.4 C 511.02 1068.66 533.56 1066.43 550.03 1053.38 C 566.52 1040.33 570.71 1021.43 559.41 1011.15 C 548.11 1000.88 525.57 1003.13 509.11 1016.17 M 523.84 1011.06 C 539.74 1005.11 555.43 1011.13 558.93 1024.51 C 562.41 1037.89 552.38 1053.57 536.48 1059.52 C 520.61 1065.48 504.88 1059.45 501.41 1046.07 C 497.91 1032.69 507.97 1017.02 523.84 1011.06" stroke-linecap="round" />
</g>
		<g transform="matrix(1 0 0 1 -523.119 48.1789)" id="Layer_1"  >
<path style="stroke: none; stroke-width: 1; stroke-dasharray: none; stroke-linecap: butt; stroke-dashoffset: 0; stroke-linejoin: miter; stroke-miterlimit: 4; fill: rgb(0,0,0); fill-rule: nonzero; opacity: 1;"  transform=" translate(-484.27, -1108.435)" d="M 500.33 1103.52 L 495.96 1103.52 L 495.96 1093.32 L 491.67 1093.32 C 491.67 1093.59 491.67 1111.48 491.67 1111.48 C 491.64 1113.44 490.76 1114.71 489.89 1115.31 L 489.89 1115.29 C 488.35 1116.35 485.12 1116.33 485.12 1116.33 L 485.12 1116.33 L 480.22 1116.33 L 480.22 1111.36 L 475.94 1111.36 L 475.94 1116.33 L 468.21 1116.33 L 468.21 1119.55 C 468.42 1119.55 479.72 1119.55 485.27 1119.55 C 485.42 1119.55 489.97 1119.53 491.56 1117.84 C 491.62 1117.77 491.66 1117.71 491.68 1117.66 L 491.68 1123.55 L 495.96 1123.55 L 495.96 1106.82 L 500.33 1106.82" stroke-linecap="round" />
</g>
		<g transform="matrix(1 0 0 1 -529.549 33.0689)" id="Layer_1"  >
<rect style="stroke: none; stroke-width: 1; stroke-dasharray: none; stroke-linecap: butt; stroke-dashoffset: 0; stroke-linejoin: miter; stroke-miterlimit: 4; fill: rgb(0,0,0); fill-rule: nonzero; opacity: 1;"  x="-4.91" y="-1.395" rx="0" ry="0" width="9.82" height="2.79" />
</g>
		<g transform="matrix(1 0 0 1 -529.439 36.7939)" id="Layer_1"  >
<rect style="stroke: none; stroke-width: 1; stroke-dasharray: none; stroke-linecap: butt; stroke-dashoffset: 0; stroke-linejoin: miter; stroke-miterlimit: 4; fill: rgb(0,0,0); fill-rule: nonzero; opacity: 1;"  x="-9.56" y="-1.35" rx="0" ry="0" width="19.12" height="2.7" />
</g>
		<g transform="matrix(1 0 0 1 -529.474 45.3539)" id="Layer_1"  >
<path style="stroke: none; stroke-width: 1; stroke-dasharray: none; stroke-linecap: butt; stroke-dashoffset: 0; stroke-linejoin: miter; stroke-miterlimit: 4; fill: rgb(0,0,0); fill-rule: nonzero; opacity: 1;"  transform=" translate(-477.915, -1105.61)" d="M 477.88 1109.21 C 475.62 1109.2 473.79 1107.53 473.8 1105.49 C 473.82 1103.44 475.66 1102.01 477.92 1102.01 C 480.19 1102.02 482.01 1103.47 482.01 1105.52 C 482 1107.56 480.15 1109.22 477.88 1109.21 M 477.92 1099.34 C 473.08 1099.34 469.75 1102.15 469.75 1105.61 C 469.75 1108.64 473.06 1111.88 477.92 1111.88 C 482.87 1111.88 486.08 1108.55 486.08 1105.61 C 486.08 1102.15 482.91 1099.34 477.92 1099.34" stroke-linecap="round" />
</g>
		<g transform="matrix(1 0 0 1 -547.2868 43.5189)" id="Layer_1"  >
<path style="stroke: none; stroke-width: 1; stroke-dasharray: none; stroke-linecap: butt; stroke-dashoffset: 0; stroke-linejoin: miter; stroke-miterlimit: 4; fill: rgb(0,0,0); fill-rule: nonzero; opacity: 1;"  transform=" translate(-460.1022, -1103.775)" d="M 464.43 1103.67 C 464.44 1103.43 464.43 1100.65 464.43 1100.41 L 460.05 1100.41 L 460.05 1093.33 L 455.77 1093.33 L 455.77 1114.22 L 460.05 1114.22 L 460.05 1103.68" stroke-linecap="round" />
</g>
		<g transform="matrix(1 0 0 1 -558.9791 58.3139)" id="Layer_1"  >
<path style="stroke: none; stroke-width: 1; stroke-dasharray: none; stroke-linecap: butt; stroke-dashoffset: 0; stroke-linejoin: miter; stroke-miterlimit: 4; fill: rgb(0,0,0); fill-rule: nonzero; opacity: 1;"  transform=" translate(-448.4099, -1118.57)" d="M 459.97 1120.3 L 443.89 1120.3 C 442.97 1120.3 442.33 1119.98 441.84 1119.42 C 441.22 1118.73 441.14 1117.82 441.15 1116.72 L 441.15 1113.59 L 436.84 1113.59 L 436.84 1118.4 C 436.83 1119.69 437.15 1123.53 442.61 1123.55 L 459.98 1123.55" stroke-linecap="round" />
</g>
		<g transform="matrix(1 0 0 1 -565.379 33.0639)" id="Layer_1"  >
<rect style="stroke: none; stroke-width: 1; stroke-dasharray: none; stroke-linecap: butt; stroke-dashoffset: 0; stroke-linejoin: miter; stroke-miterlimit: 4; fill: rgb(0,0,0); fill-rule: nonzero; opacity: 1;"  x="-4.89" y="-1.39" rx="0" ry="0" width="9.78" height="2.78" />
</g>
		<g transform="matrix(1 0 0 1 -565.274 45.3239)" id="Layer_1"  >
<path style="stroke: none; stroke-width: 1; stroke-dasharray: none; stroke-linecap: butt; stroke-dashoffset: 0; stroke-linejoin: miter; stroke-miterlimit: 4; fill: rgb(0,0,0); fill-rule: nonzero; opacity: 1;"  transform=" translate(-442.115, -1105.58)" d="M 442.08 1109.16 C 439.82 1109.15 438.01 1107.49 438.01 1105.45 C 438.02 1103.41 439.85 1101.98 442.11 1101.99 C 444.37 1102 446.18 1103.44 446.17 1105.48 C 446.17 1107.52 444.34 1109.16 442.08 1109.16 M 442.11 1099.33 C 437.29 1099.33 433.98 1102.13 433.98 1105.58 C 433.98 1108.6 437.28 1111.83 442.11 1111.83 C 447.03 1111.83 450.25 1108.52 450.25 1105.58 C 450.24 1102.13 447.08 1099.33 442.11 1099.33" stroke-linecap="round" />
</g>
		<g transform="matrix(1 0 0 1 -565.264 36.7639)" id="Layer_1"  >
<rect style="stroke: none; stroke-width: 1; stroke-dasharray: none; stroke-linecap: butt; stroke-dashoffset: 0; stroke-linejoin: miter; stroke-miterlimit: 4; fill: rgb(0,0,0); fill-rule: nonzero; opacity: 1;"  x="-9.515" y="-1.34" rx="0" ry="0" width="19.03" height="2.68" />
</g>
		<g transform="matrix(1 0 0 1 -487.844 57.1339)" id="Layer_1"  >
<polyline style="stroke: none; stroke-width: 1; stroke-dasharray: none; stroke-linecap: butt; stroke-dashoffset: 0; stroke-linejoin: miter; stroke-miterlimit: 4; fill: rgb(0,0,0); fill-rule: nonzero; opacity: 1;"  points="2.095,-2.91 2.095,6.15 -2.205,6.15 -2.205,-2.91 -15.475,-2.91 -15.475,-6.15 15.475,-6.15 15.475,-2.91" />
</g>
		<g transform="matrix(1 0 0 1 -487.8441 40.9039)" id="Layer_1"  >
<path style="stroke: none; stroke-width: 1; stroke-dasharray: none; stroke-linecap: butt; stroke-dashoffset: 0; stroke-linejoin: miter; stroke-miterlimit: 4; fill: rgb(0,0,0); fill-rule: nonzero; opacity: 1;"  transform=" translate(-519.5449, -1101.16)" d="M 513.89 1105.85 L 531.31 1105.85 L 531.31 1108.72 L 513.58 1108.72 C 508.12 1108.72 507.77 1104.37 507.78 1103.84 L 507.78 1093.6 L 531.31 1093.6 L 531.31 1096.43 L 512.1 1096.43 L 512.1 1099.5 C 512.1 1099.5 512.11 1099.53 512.11 1099.55 L 531.31 1099.55 L 531.31 1102.38 L 512.03 1102.38 L 512.03 1104.01 C 512.13 1105.53 513.32 1105.8 513.89 1105.85" stroke-linecap="round" />
</g>
		<g transform="matrix(1 0 0 1 -418.644 58.2789)" id="Layer_1"  >
<path style="stroke: none; stroke-width: 1; stroke-dasharray: none; stroke-linecap: butt; stroke-dashoffset: 0; stroke-linejoin: miter; stroke-miterlimit: 4; fill: rgb(0,0,0); fill-rule: nonzero; opacity: 1;"  transform=" translate(-588.745, -1118.535)" d="M 588.72 1121.82 C 585.96 1121.81 581.62 1121.37 581.63 1118.5 C 581.65 1115.79 585.99 1115.26 588.75 1115.28 C 591.5 1115.29 595.84 1115.86 595.83 1118.57 C 595.83 1121.37 591.48 1121.83 588.72 1121.82 M 588.77 1112.57 C 583.24 1112.57 577.21 1113.59 577.21 1118.49 C 577.21 1123.37 583.17 1124.5 588.72 1124.5 C 594.4 1124.5 600.28 1123.66 600.28 1118.59 C 600.28 1113.75 594.44 1112.57 588.77 1112.57" stroke-linecap="round" />
</g>
		<g transform="matrix(1 0 0 1 -418.649 39.7989)" id="Layer_1"  >
<path style="stroke: none; stroke-width: 1; stroke-dasharray: none; stroke-linecap: butt; stroke-dashoffset: 0; stroke-linejoin: miter; stroke-miterlimit: 4; fill: rgb(0,0,0); fill-rule: nonzero; opacity: 1;"  transform=" translate(-588.74, -1100.055)" d="M 601.51 1093.59 L 575.97 1093.59 L 575.97 1096.81 L 585.71 1096.81 C 585.71 1097.35 585.47 1097.9 585.26 1098.27 C 583.54 1101.25 578.63 1103.33 575.97 1103.5 L 575.97 1106.52 C 583.2 1105.77 587.59 1102.53 588.74 1100.92 C 589.89 1102.53 594.28 1105.77 601.51 1106.52 L 601.51 1103.5 C 598.84 1103.33 593.93 1101.25 592.21 1098.27 C 591.99 1097.9 591.76 1097.43 591.76 1096.81 L 601.5 1096.81" stroke-linecap="round" />
</g>
		<g transform="matrix(1 0 0 1 -418.654 49.3239)" id="Layer_1"  >
<polyline style="stroke: none; stroke-width: 1; stroke-dasharray: none; stroke-linecap: butt; stroke-dashoffset: 0; stroke-linejoin: miter; stroke-miterlimit: 4; fill: rgb(0,0,0); fill-rule: nonzero; opacity: 1;"  points="2.085,-1.61 -2.185,-1.61 -15.495,-1.61 -15.495,1.61 15.495,1.61 15.495,-1.61" />
</g>
		<g transform="matrix(1 0 0 1 -389.614 39.3989)" id="Layer_1"  >
<path style="stroke: none; stroke-width: 1; stroke-dasharray: none; stroke-linecap: butt; stroke-dashoffset: 0; stroke-linejoin: miter; stroke-miterlimit: 4; fill: rgb(0,0,0); fill-rule: nonzero; opacity: 1;"  transform=" translate(-617.775, -1099.655)" d="M 620.58 1093.6 C 620.58 1093.6 609.48 1093.61 609.21 1093.6 L 609.21 1096.85 L 619.3 1096.85 C 620.22 1096.86 620.86 1097.16 621.35 1097.71 C 621.97 1098.41 622.04 1099.31 622.04 1100.4 L 622.04 1105.69 C 622.28 1105.69 626.08 1105.71 626.34 1105.71 L 626.34 1098.74 C 626.33 1097.44 626.02 1093.63 620.58 1093.6" stroke-linecap="round" />
</g>
		<g transform="matrix(1 0 0 1 -377.264 44.2589)" id="Layer_1"  >
<polyline style="stroke: none; stroke-width: 1; stroke-dasharray: none; stroke-linecap: butt; stroke-dashoffset: 0; stroke-linejoin: miter; stroke-miterlimit: 4; fill: rgb(0,0,0); fill-rule: nonzero; opacity: 1;"  points="1.165,11.165 5.465,11.165 5.465,-11.165 1.165,-11.165 1.165,5.375 -5.465,5.375 -5.465,8.055 1.165,8.055" />
</g>
		<g transform="matrix(1 0 0 1 -389.394 49.0689)" id="Layer_1"  >
<polyline style="stroke: none; stroke-width: 1; stroke-dasharray: none; stroke-linecap: butt; stroke-dashoffset: 0; stroke-linejoin: miter; stroke-miterlimit: 4; fill: rgb(0,0,0); fill-rule: nonzero; opacity: 1;"  points="-10.025,-3.775 10.025,-3.775 10.025,-0.745 1.295,-0.745 1.295,3.775 -2.835,3.775 -2.835,-0.745 -10.025,-0.745" />
</g>
		<g transform="matrix(1 0 0 1 -383.3691 58.8089)" id="Layer_1"  >
<path style="stroke: none; stroke-width: 1; stroke-dasharray: none; stroke-linecap: butt; stroke-dashoffset: 0; stroke-linejoin: miter; stroke-miterlimit: 4; fill: rgb(0,0,0); fill-rule: nonzero; opacity: 1;"  transform=" translate(-624.0199, -1119.065)" d="M 635.59 1120.31 L 619.49 1120.31 C 618.57 1120.31 617.92 1119.99 617.44 1119.43 C 616.82 1118.74 616.74 1117.83 616.74 1116.73 L 616.74 1114.56 L 612.45 1114.56 L 612.45 1118.41 C 612.44 1119.71 612.76 1123.55 618.22 1123.57 L 635.58 1123.57" stroke-linecap="round" />
</g>
		<g transform="matrix(1 0 0 1 -442.194 48.1789)" id="Layer_1"  >
<path style="stroke: none; stroke-width: 1; stroke-dasharray: none; stroke-linecap: butt; stroke-dashoffset: 0; stroke-linejoin: miter; stroke-miterlimit: 4; fill: rgb(0,0,0); fill-rule: nonzero; opacity: 1;"  transform=" translate(-565.195, -1108.435)" d="M 569.51 1103.53 L 565.14 1103.53 L 565.14 1093.32 L 560.88 1093.32 C 560.88 1093.58 560.89 1123.29 560.89 1123.55 L 565.15 1123.55 C 565.15 1122.84 565.14 1106.83 565.14 1106.83 L 569.51 1106.83" stroke-linecap="round" />
</g>
		<g transform="matrix(1 0 0 1 -459.244 44.6289)" id="Layer_1"  >
<path style="stroke: none; stroke-width: 1; stroke-dasharray: none; stroke-linecap: butt; stroke-dashoffset: 0; stroke-linejoin: miter; stroke-miterlimit: 4; fill: rgb(0,0,0); fill-rule: nonzero; opacity: 1;"  transform=" translate(-548.145, -1104.885)" d="M 550.27 1097.51 L 550.27 1096.89 L 557 1096.89 L 557 1093.59 L 539.28 1093.59 L 539.28 1096.89 L 546.06 1096.89 C 546.06 1097.22 546.06 1097.45 546.06 1097.51 C 546.1 1111.02 538.89 1112.24 538.76 1112.27 L 538.76 1116.18 C 543.91 1114.84 547.33 1110.13 548.15 1108.1 C 548.96 1110.14 552.39 1114.85 557.53 1116.18 L 557.53 1112.23 C 557.53 1112.23 550.22 1111.16 550.27 1097.51" stroke-linecap="round" />
</g>
		<g transform="matrix(1 0 0 1 95.856 4.9489)" id="Layer_1" clip-path="url(#CLIPPATH_0)"  >
<clipPath id="CLIPPATH_0" >
	<rect transform="matrix(1 0 0 1 -140.365 0)" id="SVGID_1_" x="-566.88" y="-113.385" rx="0" ry="0" width="1133.76" height="226.77" />
</clipPath>
<path style="stroke: none; stroke-width: 1; stroke-dasharray: none; stroke-linecap: butt; stroke-dashoffset: 0; stroke-linejoin: miter; stroke-miterlimit: 4; fill: rgb(236,102,8); fill-rule: evenodd; opacity: 1;"  transform=" translate(-1103.245, -1065.205)" d="M 676.63 951.82 L 1529.86 951.82 L 1529.86 1178.59 L 676.63 1178.59 L 676.63 951.82 Z M 396 951.82" stroke-linecap="round" />
</g>
		<g transform="matrix(1 0 0 1 502.7754 12.8489)" id="Layer_1" clip-path="url(#CLIPPATH_1)"  >
<clipPath id="CLIPPATH_1" >
	<rect transform="matrix(1 0 0 1 -111.4994 -7.9)" id="SVGID_00000030479175388039288800000015441107876364309902_" x="-131.095" y="-113.385" rx="0" ry="0" width="262.19" height="226.77" />
</clipPath>
<path style="stroke: none; stroke-width: 1; stroke-dasharray: none; stroke-linecap: butt; stroke-dashoffset: 0; stroke-linejoin: miter; stroke-miterlimit: 4; fill: rgb(244,156,86); fill-rule: nonzero; opacity: 1;"  transform=" translate(-1510.1644, -1073.105)" d="M 1618.44 1073.91 C 1613.76 1032.33 1561.45 998.25 1501.66 997.8 C 1441.87 997.35 1397.19 1030.71 1401.89 1072.3 C 1406.57 1113.89 1458.87 1147.98 1518.67 1148.41 C 1578.47 1148.86 1623.13 1115.5 1618.44 1073.91 M 1420.64 1063.5 C 1416.56 1029.96 1455.39 1003.06 1507.34 1003.43 C 1559.28 1003.8 1604.71 1031.26 1608.79 1064.79 C 1612.87 1098.32 1574.06 1125.23 1522.07 1124.87 C 1470.16 1124.51 1424.71 1097.05 1420.64 1063.5" stroke-linecap="round" />
</g>
		<g transform="matrix(1 0 0 1 472.3927 50.1687)" id="Layer_1" clip-path="url(#CLIPPATH_2)"  >
<clipPath id="CLIPPATH_2" >
	<rect transform="matrix(1 0 0 1 -81.1167 -45.2198)" id="SVGID_00000030479175388039288800000015441107876364309902_" x="-131.095" y="-113.385" rx="0" ry="0" width="262.19" height="226.77" />
</clipPath>
<path style="stroke: none; stroke-width: 1; stroke-dasharray: none; stroke-linecap: butt; stroke-dashoffset: 0; stroke-linejoin: miter; stroke-miterlimit: 4; fill: rgb(244,156,86); fill-rule: nonzero; opacity: 1;"  transform=" translate(-1479.7817, -1110.4248)" d="M 1419.06 1057.76 C 1384.83 1090.18 1384.25 1140.01 1417.78 1169.09 C 1451.34 1198.18 1506.29 1195.47 1540.52 1163.08 C 1574.75 1130.71 1575.3 1080.86 1541.76 1051.76 C 1508.26 1022.68 1453.3 1025.37 1419.06 1057.76 M 1528.17 1149.28 C 1498.71 1177.13 1451.46 1179.44 1422.6 1154.43 C 1393.72 1129.41 1394.22 1086.52 1423.69 1058.65 C 1453.14 1030.78 1500.42 1028.5 1529.25 1053.51 C 1558.12 1078.51 1557.64 1121.41 1528.17 1149.28" stroke-linecap="round" />
</g>
		<g transform="matrix(1 0 0 1 436.8388 -23.959)" id="Layer_1" clip-path="url(#CLIPPATH_3)"  >
<clipPath id="CLIPPATH_3" >
	<rect transform="matrix(1 0 0 1 -45.5629 28.9079)" id="SVGID_00000030479175388039288800000015441107876364309902_" x="-131.095" y="-113.385" rx="0" ry="0" width="262.19" height="226.77" />
</clipPath>
<path style="stroke: none; stroke-width: 1; stroke-dasharray: none; stroke-linecap: butt; stroke-dashoffset: 0; stroke-linejoin: miter; stroke-miterlimit: 4; fill: rgb(244,156,86); fill-rule: nonzero; opacity: 1;"  transform=" translate(-1444.2279, -1036.2971)" d="M 1365.3 971.33 C 1301.73 1016.89 1285.58 1082.93 1329.15 1118.83 C 1372.74 1154.7 1459.61 1146.86 1523.18 1101.28 C 1586.71 1055.69 1602.88 989.65 1559.31 953.78 C 1515.69 917.88 1428.84 925.74 1365.3 971.33 M 1422.17 953.47 C 1483.43 932.65 1544.01 953.71 1557.47 1000.45 C 1570.93 1047.18 1532.2 1101.93 1470.95 1122.73 C 1409.71 1143.53 1349.15 1122.48 1335.65 1075.74 C 1322.19 1029 1360.93 974.25 1422.17 953.47" stroke-linecap="round" />
</g>
</g>
</g>
</svg>